# xmcd
#
# Track frame offsets:
#	150
#	13348
#	32098
#	46209
#	65590
#	81286
#	100875
#	123496
#	147532
#	159917
#	184419
#	199311
#
# Disc length: 2883
#
# Revision: 1
# Processed by: cddbd v1.5.1PL0 Copyright (c) Steve Scherf et al.
# Submitted via: CDex 1.51
# Normalized: r0:TRMNUM
#
DISCID=ae0b410c
DTITLE=Keb' MO' - Keep it Simple
DYEAR=2004
DGENRE=Blues
TTITLE0=Keb' Mo' - France
TTITLE1=Keb' Mo' - Let Your Light Shine
TTITLE2=Keb' Mo' - One Friend
TTITLE3=Keb' Mo' - Shave Yo Legs
TTITLE4=Keb' Mo' - Prosperity Blues
TTITLE5=Keb' Mo' - Closer
TTITLE6=Keb' Mo' - Keep it Simple
TTITLE7=Keb' Mo' - Riley B. King
TTITLE8=Keb' Mo' - House in California
TTITLE9=Keb' Mo' - Walk Back in
TTITLE10=Keb' Mo' - I'm Amazing
TTITLE11=Keb' Mo' - Proving You Wrong
EXTD=YEAR: 2004
EXTT0=
EXTT1=
EXTT2=
EXTT3=
EXTT4=
EXTT5=
EXTT6=
EXTT7=
EXTT8=
EXTT9=
EXTT10=
EXTT11=
PLAYORDER=
